<svg width="480" height="106" viewBox="0 0 480 106" fill="none" xmlns="http://www.w3.org/2000/svg">
<g clip-path="url(#clip0_22_2)">
<path d="M8.61692 42.6935H0.5V50.8104H8.61692V42.6935Z" fill="#00FFA7"/>
<path d="M24.7028 29.2244H13.895V40.0322H24.7028V29.2244Z" fill="#00FFA7"/>
<path d="M23.0914 48.1195H17.6802V53.5308H23.0914V48.1195Z" fill="#00FFA7"/>
<path d="M46.1115 83.2338C47.59 82.6572 48.9651 81.7701 50.2514 80.5281L55.9287 86.6787C52.4691 90.641 47.4126 92.6222 40.7594 92.6222C36.6048 92.6222 32.9381 91.8091 29.7594 90.1975C26.5658 88.5859 24.1115 86.3386 22.3817 83.4703C20.6519 80.6021 19.7795 77.3346 19.7795 73.6975C19.7795 70.0604 20.6371 66.8521 22.3374 63.9542C24.0525 61.0564 26.3884 58.809 29.375 57.1827C32.3615 55.5711 35.7177 54.758 39.4583 54.758C42.9623 54.758 46.1559 55.4972 49.0242 56.9757C51.8925 58.4542 54.1841 60.598 55.8991 63.4072C57.6142 66.2163 58.457 69.5281 58.457 73.3574L31.2527 78.6209C32.0215 80.4394 33.2487 81.8144 34.9046 82.7163C36.5605 83.633 38.6008 84.0765 41.0255 84.0765C42.9328 84.0765 44.633 83.7956 46.1115 83.219V83.2338ZM32.8938 65.4327C31.2083 67.1626 30.3212 69.5577 30.2325 72.6034L48.1371 69.1142C47.6344 67.2069 46.6143 65.6693 45.0618 64.5308C43.5094 63.3924 41.6465 62.8158 39.4583 62.8158C36.7674 62.8158 34.5793 63.6881 32.8938 65.4179V65.4327Z" fill="#2E2E2E"/>
<path d="M101.452 55.3198L85.9275 92.09H74.9275L59.4773 55.3198H70.4773L80.664 80.336L91.1909 55.3198H101.452Z" fill="#2E2E2E"/>
<path d="M111.875 90.2123C108.8 88.6008 106.39 86.3535 104.66 83.4852C102.93 80.6169 102.058 77.3494 102.058 73.7123C102.058 70.0752 102.915 66.8078 104.66 63.9395C106.39 61.0712 108.8 58.8239 111.875 57.2123C114.95 55.6007 118.425 54.7876 122.298 54.7876C126.172 54.7876 129.632 55.6007 132.692 57.2123C135.738 58.8239 138.133 61.0712 139.863 63.9395C141.593 66.8078 142.465 70.0752 142.465 73.7123C142.465 77.3494 141.593 80.6169 139.863 83.4852C138.133 86.3535 135.738 88.6008 132.692 90.2123C129.632 91.8239 126.172 92.6371 122.298 92.6371C118.425 92.6371 114.95 91.8239 111.875 90.2123ZM129.025 81.1196C130.785 79.2715 131.657 76.8024 131.657 73.6976C131.657 70.5927 130.785 68.1236 129.025 66.2755C127.266 64.4274 125.034 63.5107 122.298 63.5107C119.563 63.5107 117.301 64.4274 115.527 66.2755C113.753 68.1236 112.866 70.5927 112.866 73.6976C112.866 76.8024 113.753 79.2715 115.527 81.1196C117.301 82.9677 119.563 83.8844 122.298 83.8844C125.034 83.8844 127.281 82.9677 129.025 81.1196Z" fill="#2E2E2E"/>
<path d="M153.066 89.3252C150.745 87.1222 149.577 83.9878 149.577 79.922V41.3629H160.237V79.301C160.237 80.8534 160.636 82.051 161.434 82.8938C162.233 83.7365 163.356 84.1504 164.82 84.1504C165.367 84.1504 165.929 84.0765 166.491 83.9435C167.052 83.8104 167.511 83.6478 167.821 83.4703L168.294 91.7351C166.52 92.3265 164.672 92.6222 162.75 92.6222C158.595 92.6222 155.372 91.5134 153.051 89.3104L153.066 89.3252Z" fill="#2E2E2E"/>
<path d="M210.609 55.3198V92.09H200.496V87.7136C199.077 89.3104 197.391 90.5228 195.439 91.3655C193.473 92.2082 191.359 92.6222 189.082 92.6222C184.247 92.6222 180.418 91.2324 177.594 88.4529C174.77 85.6733 173.351 81.5483 173.351 76.0779V55.2903H184.011V74.4959C184.011 80.4246 186.495 83.3816 191.462 83.3816C194.02 83.3816 196.06 82.5537 197.613 80.883C199.165 79.2271 199.934 76.7432 199.934 73.461V55.2755H210.594L210.609 55.3198Z" fill="#2E2E2E"/>
<path d="M242.677 90.3158C241.628 91.0846 240.341 91.676 238.819 92.0604C237.296 92.4448 235.714 92.637 234.073 92.637C229.652 92.637 226.251 91.5281 223.886 89.2808C221.52 87.0483 220.337 83.7661 220.337 79.4341V47.1733H230.997V56.133H240.09V64.3386H230.997V79.301C230.997 80.8534 231.382 82.051 232.165 82.8938C232.934 83.7365 234.058 84.1505 235.522 84.1505C237.163 84.1505 238.626 83.6921 239.898 82.7903L242.707 90.3158H242.677Z" fill="#2E2E2E"/>
<path d="M249.242 48.4744C248.015 47.336 247.394 45.9166 247.394 44.2311C247.394 42.5456 248.015 41.1263 249.242 39.9878C250.469 38.8494 252.066 38.2728 254.032 38.2728C255.999 38.2728 257.581 38.8198 258.823 39.9139C260.05 41.008 260.671 42.3682 260.671 44.0093C260.671 45.7835 260.05 47.262 258.823 48.4153C257.595 49.5833 255.999 50.1599 254.032 50.1599C252.066 50.1599 250.484 49.5833 249.242 48.4448V48.4744ZM248.695 55.3198H259.355V92.09H248.695V55.3198Z" fill="#2E2E2E"/>
<path d="M276.343 90.2123C273.267 88.6008 270.858 86.3535 269.128 83.4852C267.398 80.6169 266.526 77.3494 266.526 73.7123C266.526 70.0752 267.383 66.8078 269.128 63.9395C270.858 61.0712 273.267 58.8239 276.343 57.2123C279.418 55.6007 282.892 54.7876 286.766 54.7876C290.64 54.7876 294.099 55.6007 297.16 57.2123C300.206 58.8239 302.601 61.0712 304.331 63.9395C306.06 66.8078 306.933 70.0752 306.933 73.7123C306.933 77.3494 306.06 80.6169 304.331 83.4852C302.601 86.3535 300.206 88.6008 297.16 90.2123C294.099 91.8239 290.64 92.6371 286.766 92.6371C282.892 92.6371 279.418 91.8239 276.343 90.2123ZM293.493 81.1196C295.253 79.2715 296.125 76.8024 296.125 73.6976C296.125 70.5927 295.253 68.1236 293.493 66.2755C291.734 64.4274 289.501 63.5107 286.766 63.5107C284.031 63.5107 281.769 64.4274 279.995 66.2755C278.22 68.1236 277.333 70.5927 277.333 73.6976C277.333 76.8024 278.22 79.2715 279.995 81.1196C281.769 82.9677 284.031 83.8844 286.766 83.8844C289.501 83.8844 291.749 82.9677 293.493 81.1196Z" fill="#2E2E2E"/>
<path d="M347.429 58.8682C350.238 61.6034 351.628 65.6545 351.628 71.0362V92.09H340.968V72.6774C340.968 69.7647 340.332 67.5913 339.06 66.1424C337.789 64.7083 335.941 63.9838 333.516 63.9838C330.825 63.9838 328.681 64.8118 327.085 66.4825C325.488 68.1532 324.69 70.6222 324.69 73.9045V92.09H314.03V55.3198H324.216V59.6222C325.636 58.0698 327.38 56.8722 329.48 56.0295C331.579 55.1868 333.871 54.7728 336.384 54.7728C340.938 54.7728 344.62 56.133 347.429 58.8682Z" fill="#2E2E2E"/>
<path d="M398.999 55.3198V92.09H388.812V87.8467C386.165 91.0403 382.336 92.6371 377.324 92.6371C373.864 92.6371 370.73 91.8682 367.921 90.3158C365.112 88.7634 362.923 86.5604 361.327 83.6921C359.73 80.8239 358.931 77.4973 358.931 73.7123C358.931 69.9274 359.73 66.6007 361.327 63.7325C362.923 60.8642 365.126 58.6465 367.921 57.1088C370.73 55.5564 373.849 54.7876 377.324 54.7876C382.011 54.7876 385.692 56.2661 388.324 59.2231V55.3198H398.984H398.999ZM385.884 81.1196C387.659 79.2715 388.546 76.8024 388.546 73.6976C388.546 70.5927 387.659 68.1236 385.884 66.2755C384.11 64.4274 381.878 63.5107 379.187 63.5107C376.496 63.5107 374.19 64.4274 372.415 66.2755C370.641 68.1236 369.754 70.5927 369.754 73.6976C369.754 76.8024 370.641 79.2715 372.415 81.1196C374.19 82.9677 376.452 83.8844 379.187 83.8844C381.922 83.8844 384.11 82.9677 385.884 81.1196Z" fill="#00FFA7"/>
<path d="M439.923 57.1236C442.732 58.6908 444.921 60.9085 446.517 63.7472C448.114 66.6007 448.913 69.9126 448.913 73.6975C448.913 77.4825 448.114 80.7943 446.517 83.6477C444.921 86.5012 442.718 88.7042 439.923 90.2714C437.129 91.8386 434.009 92.6222 430.594 92.6222C425.907 92.6222 422.211 91.1437 419.52 88.1867V105.337H408.86V55.305H419.047V59.5483C421.693 56.3548 425.538 54.758 430.594 54.758C434.009 54.758 437.129 55.5416 439.923 57.1088V57.1236ZM435.473 81.1195C437.232 79.2714 438.105 76.8023 438.105 73.6975C438.105 70.5927 437.232 68.1236 435.473 66.2754C433.714 64.4273 431.481 63.5107 428.746 63.5107C426.011 63.5107 423.763 64.4273 422.019 66.2754C420.259 68.1236 419.387 70.5927 419.387 73.6975C419.387 76.8023 420.259 79.2714 422.019 81.1195C423.778 82.9676 426.011 83.8843 428.746 83.8843C431.481 83.8843 433.728 82.9676 435.473 81.1195Z" fill="#00FFA7"/>
<path d="M456.009 55.3198H466.669V92.09H456.009V55.3198Z" fill="#00FFA7"/>
<path d="M430.579 37.0456C433.329 38.258 436.538 37.0456 437.824 34.34L449.193 37.9623C449.016 42.3534 451.47 46.6115 455.728 48.4891C461.273 50.9434 467.778 48.43 470.218 42.8709C472.568 37.5483 470.351 31.3682 465.265 28.7069L471.179 13.1383C474.003 13.5967 476.901 12.1182 478.113 9.3682C479.547 6.10073 478.069 2.27144 474.801 0.837301C471.534 -0.611623 467.704 0.866857 466.27 4.14911C464.969 7.1061 466.063 10.5214 468.71 12.2069L462.796 27.7755C457.71 26.504 452.283 29.0322 450.095 33.9999C449.903 34.4435 449.741 34.9018 449.607 35.3454L438.327 31.7526C438.238 29.7123 437.026 27.7902 435.03 26.9031C432.22 25.6612 428.953 26.9327 427.711 29.7418C426.484 32.5362 427.741 35.8185 430.55 37.0604L430.579 37.0456Z" fill="#00FFA7"/>
</g>
<defs>
<clipPath id="clip0_22_2">
<rect width="479" height="106" fill="white" transform="translate(0.5)"/>
</clipPath>
</defs>
</svg>
