<svg width="480" height="106" viewBox="0 0 480 106" fill="none" xmlns="http://www.w3.org/2000/svg">
<g clip-path="url(#clip0_22_19)">
<path d="M8.61692 42.4124H0.5V50.5293H8.61692V42.4124Z" fill="#00FFA7"/>
<path d="M24.7029 28.9433H13.8951V39.7511H24.7029V28.9433Z" fill="#00FFA7"/>
<path d="M23.0913 47.8385H17.6801V53.2498H23.0913V47.8385Z" fill="#00FFA7"/>
<path d="M46.1115 82.9527C47.59 82.3761 48.9651 81.489 50.2514 80.2471L55.9287 86.3976C52.4691 90.36 47.4126 92.3411 40.7594 92.3411C36.6048 92.3411 32.9381 91.528 29.7594 89.9164C26.5658 88.3049 24.1115 86.0575 22.3817 83.1893C20.6519 80.321 19.7795 77.0535 19.7795 73.4164C19.7795 69.7793 20.6371 66.571 22.3374 63.6732C24.0525 60.7753 26.3884 58.528 29.375 56.9016C32.3615 55.2901 35.7177 54.4769 39.4583 54.4769C42.9623 54.4769 46.1559 55.2162 49.0242 56.6947C51.8925 58.1732 54.1841 60.3169 55.8991 63.1261C57.6142 65.9352 58.457 69.2471 58.457 73.0764L31.2527 78.3398C32.0215 80.1584 33.2487 81.5333 34.9046 82.4352C36.5605 83.3519 38.6008 83.7955 41.0255 83.7955C42.9328 83.7955 44.633 83.5146 46.1115 82.9379V82.9527ZM32.8938 65.1517C31.2083 66.8815 30.3212 69.2766 30.2325 72.3223L48.1371 68.8331C47.6344 66.9258 46.6143 65.3882 45.0618 64.2498C43.5094 63.1113 41.6465 62.5347 39.4583 62.5347C36.7674 62.5347 34.5793 63.407 32.8938 65.1369V65.1517Z" fill="#D8D8D8"/>
<path d="M101.452 55.0387L85.9274 91.8089H74.9274L59.4772 55.0387H70.4772L80.6639 80.0549L91.1908 55.0387H101.452Z" fill="#D8D8D8"/>
<path d="M111.875 89.9312C108.8 88.3196 106.39 86.0723 104.66 83.2041C102.93 80.3358 102.058 77.0683 102.058 73.4312C102.058 69.7941 102.915 66.5266 104.66 63.6584C106.39 60.7901 108.8 58.5428 111.875 56.9312C114.95 55.3196 118.425 54.5065 122.298 54.5065C126.172 54.5065 129.632 55.3196 132.692 56.9312C135.738 58.5428 138.133 60.7901 139.863 63.6584C141.593 66.5266 142.465 69.7941 142.465 73.4312C142.465 77.0683 141.593 80.3358 139.863 83.2041C138.133 86.0723 135.738 88.3196 132.692 89.9312C129.632 91.5428 126.172 92.3559 122.298 92.3559C118.425 92.3559 114.95 91.5428 111.875 89.9312ZM129.025 80.8385C130.785 78.9903 131.657 76.5213 131.657 73.4164C131.657 70.3116 130.785 67.8425 129.025 65.9944C127.266 64.1463 125.034 63.2296 122.298 63.2296C119.563 63.2296 117.301 64.1463 115.527 65.9944C113.753 67.8425 112.866 70.3116 112.866 73.4164C112.866 76.5213 113.753 78.9903 115.527 80.8385C117.301 82.6866 119.563 83.6032 122.298 83.6032C125.034 83.6032 127.281 82.6866 129.025 80.8385Z" fill="#D8D8D8"/>
<path d="M153.066 89.0441C150.745 86.8411 149.577 83.7067 149.577 79.6409V41.0818H160.237V79.0199C160.237 80.5723 160.636 81.7699 161.434 82.6127C162.233 83.4554 163.356 83.8694 164.82 83.8694C165.367 83.8694 165.929 83.7955 166.491 83.6624C167.052 83.5293 167.511 83.3667 167.821 83.1893L168.294 91.454C166.52 92.0454 164.672 92.3411 162.75 92.3411C158.595 92.3411 155.372 91.2323 153.051 89.0293L153.066 89.0441Z" fill="#D8D8D8"/>
<path d="M210.609 55.0387V91.8089H200.496V87.4325C199.077 89.0293 197.391 90.2417 195.439 91.0844C193.473 91.9272 191.359 92.3412 189.082 92.3412C184.247 92.3412 180.418 90.9514 177.594 88.1718C174.77 85.3922 173.351 81.2672 173.351 75.7968V55.0092H184.011V74.2148C184.011 80.1436 186.495 83.1006 191.462 83.1006C194.02 83.1006 196.06 82.2726 197.613 80.6019C199.165 78.946 199.934 76.4621 199.934 73.1799V54.9944H210.594L210.609 55.0387Z" fill="#D8D8D8"/>
<path d="M242.677 90.0347C241.628 90.8035 240.341 91.3949 238.819 91.7793C237.296 92.1637 235.714 92.3559 234.073 92.3559C229.652 92.3559 226.251 91.247 223.886 88.9997C221.52 86.7672 220.337 83.485 220.337 79.153V46.8922H230.997V55.8519H240.09V64.0575H230.997V79.0199C230.997 80.5723 231.382 81.7699 232.165 82.6127C232.934 83.4554 234.058 83.8694 235.522 83.8694C237.163 83.8694 238.626 83.411 239.898 82.5092L242.707 90.0347H242.677Z" fill="#D8D8D8"/>
<path d="M249.242 48.1933C248.015 47.0549 247.394 45.6355 247.394 43.95C247.394 42.2645 248.015 40.8452 249.242 39.7067C250.469 38.5683 252.066 37.9917 254.032 37.9917C255.999 37.9917 257.581 38.5388 258.823 39.6328C260.05 40.7269 260.671 42.0871 260.671 43.7282C260.671 45.5024 260.05 46.981 258.823 48.1342C257.595 49.3022 255.999 49.8788 254.032 49.8788C252.066 49.8788 250.484 49.3022 249.242 48.1637V48.1933ZM248.695 55.0387H259.355V91.8089H248.695V55.0387Z" fill="#D8D8D8"/>
<path d="M276.343 89.9312C273.267 88.3196 270.858 86.0723 269.128 83.2041C267.398 80.3358 266.526 77.0683 266.526 73.4312C266.526 69.7941 267.383 66.5266 269.128 63.6584C270.858 60.7901 273.267 58.5428 276.343 56.9312C279.418 55.3196 282.892 54.5065 286.766 54.5065C290.64 54.5065 294.099 55.3196 297.16 56.9312C300.206 58.5428 302.601 60.7901 304.331 63.6584C306.06 66.5266 306.933 69.7941 306.933 73.4312C306.933 77.0683 306.06 80.3358 304.331 83.2041C302.601 86.0723 300.206 88.3196 297.16 89.9312C294.099 91.5428 290.64 92.3559 286.766 92.3559C282.892 92.3559 279.418 91.5428 276.343 89.9312ZM293.493 80.8385C295.253 78.9903 296.125 76.5213 296.125 73.4164C296.125 70.3116 295.253 67.8425 293.493 65.9944C291.734 64.1463 289.501 63.2296 286.766 63.2296C284.031 63.2296 281.769 64.1463 279.995 65.9944C278.22 67.8425 277.333 70.3116 277.333 73.4164C277.333 76.5213 278.22 78.9903 279.995 80.8385C281.769 82.6866 284.031 83.6032 286.766 83.6032C289.501 83.6032 291.749 82.6866 293.493 80.8385Z" fill="#D8D8D8"/>
<path d="M347.429 58.5871C350.238 61.3224 351.628 65.3734 351.628 70.7551V91.8089H340.968V72.3963C340.968 69.4836 340.332 67.3102 339.06 65.8613C337.789 64.4272 335.941 63.7027 333.516 63.7027C330.825 63.7027 328.681 64.5307 327.085 66.2014C325.488 67.8721 324.69 70.3411 324.69 73.6234V91.8089H314.03V55.0387H324.216V59.3411C325.636 57.7887 327.38 56.5912 329.48 55.7484C331.579 54.9057 333.871 54.4917 336.384 54.4917C340.938 54.4917 344.62 55.8519 347.429 58.5871Z" fill="#D8D8D8"/>
<path d="M398.999 55.0387V91.8089H388.812V87.5656C386.165 90.7591 382.336 92.3559 377.324 92.3559C373.864 92.3559 370.73 91.5871 367.921 90.0347C365.112 88.4823 362.923 86.2793 361.327 83.411C359.73 80.5428 358.931 77.2161 358.931 73.4312C358.931 69.6462 359.73 66.3196 361.327 63.4514C362.923 60.5831 365.126 58.3654 367.921 56.8277C370.73 55.2753 373.849 54.5065 377.324 54.5065C382.011 54.5065 385.692 55.985 388.324 58.942V55.0387H398.984H398.999ZM385.884 80.8385C387.659 78.9903 388.546 76.5213 388.546 73.4164C388.546 70.3116 387.659 67.8425 385.884 65.9944C384.11 64.1463 381.878 63.2296 379.187 63.2296C376.496 63.2296 374.19 64.1463 372.415 65.9944C370.641 67.8425 369.754 70.3116 369.754 73.4164C369.754 76.5213 370.641 78.9903 372.415 80.8385C374.19 82.6866 376.452 83.6032 379.187 83.6032C381.922 83.6032 384.11 82.6866 385.884 80.8385Z" fill="#00FFA7"/>
<path d="M439.923 56.8425C442.732 58.4097 444.921 60.6274 446.517 63.4662C448.114 66.3196 448.913 69.6315 448.913 73.4164C448.913 77.2014 448.114 80.5132 446.517 83.3667C444.921 86.2202 442.718 88.4231 439.923 89.9903C437.129 91.5576 434.009 92.3411 430.594 92.3411C425.907 92.3411 422.211 90.8627 419.52 87.9057V105.056H408.86V55.024H419.047V59.2672C421.693 56.0737 425.538 54.4769 430.594 54.4769C434.009 54.4769 437.129 55.2605 439.923 56.8277V56.8425ZM435.473 80.8385C437.232 78.9903 438.105 76.5213 438.105 73.4164C438.105 70.3116 437.232 67.8425 435.473 65.9944C433.714 64.1462 431.481 63.2296 428.746 63.2296C426.011 63.2296 423.763 64.1462 422.019 65.9944C420.259 67.8425 419.387 70.3116 419.387 73.4164C419.387 76.5213 420.259 78.9903 422.019 80.8385C423.778 82.6866 426.011 83.6032 428.746 83.6032C431.481 83.6032 433.728 82.6866 435.473 80.8385Z" fill="#00FFA7"/>
<path d="M456.009 55.0387H466.669V91.8089H456.009V55.0387Z" fill="#00FFA7"/>
<path d="M430.579 36.7645C433.329 37.9769 436.538 36.7646 437.824 34.0589L449.193 37.6812C449.016 42.0723 451.47 46.3304 455.728 48.2081C461.273 50.6624 467.778 48.149 470.218 42.5898C472.568 37.2672 470.351 31.0871 465.265 28.4258L471.179 12.8573C474.003 13.3156 476.901 11.8371 478.113 9.08713C479.547 5.81966 478.069 1.99037 474.801 0.556234C471.534 -0.89269 467.704 0.58579 466.27 3.86805C464.969 6.82504 466.063 10.2404 468.71 11.9259L462.796 27.4944C457.71 26.2229 452.283 28.7511 450.095 33.7189C449.903 34.1624 449.741 34.6207 449.607 35.0643L438.327 31.4716C438.238 29.4312 437.026 27.5091 435.03 26.6221C432.22 25.3801 428.953 26.6516 427.711 29.4608C426.484 32.2551 427.741 35.5374 430.55 36.7793L430.579 36.7645Z" fill="#00FFA7"/>
</g>
<defs>
<clipPath id="clip0_22_19">
<rect width="479" height="106" fill="white" transform="translate(0.5)"/>
</clipPath>
</defs>
</svg>
